<svg width="31" height="31" viewBox="0 0 31 31" fill="none" xmlns="http://www.w3.org/2000/svg">
<path fill-rule="evenodd" clip-rule="evenodd" d="M15.4667 30.9334C24.0087 30.9334 30.9334 24.0087 30.9334 15.4667C30.9334 6.92467 24.0087 0 15.4667 0C6.92467 0 0 6.92467 0 15.4667C0 24.0087 6.92467 30.9334 15.4667 30.9334ZM17.5178 11.1547C17.8323 11.1547 18.3323 11.21 18.7026 11.2841L19.0353 9.19257C18.3136 9.04448 17.7583 8.93341 16.9995 8.93341C14.8157 8.93341 13.9459 9.97003 13.9459 11.8207V13.1718H12.5761V15.3561H13.9459V22H16.611V15.3561H18.554L18.7396 13.1718H16.611V12.1173C16.611 11.525 16.6663 11.1547 17.5178 11.1547Z" fill="#4D77CF"/>
</svg>
