<svg width="14" height="13" viewBox="0 0 14 13" fill="none" xmlns="http://www.w3.org/2000/svg">
<path fill-rule="evenodd" clip-rule="evenodd" d="M7.21966 0.469672C7.51255 0.176778 7.98743 0.176776 8.28032 0.469668L13.5304 5.7197C13.6711 5.86035 13.7501 6.05112 13.7501 6.25003C13.7501 6.44894 13.6711 6.63971 13.5304 6.78036L8.28032 12.0304C7.98743 12.3233 7.51255 12.3233 7.21966 12.0304C6.92677 11.7375 6.92677 11.2626 7.21967 10.9697L11.1894 7.00003H1C0.585786 7.00003 0.25 6.66424 0.25 6.25003C0.25 5.83582 0.585786 5.50003 1 5.50003H11.1894L7.21967 1.53033C6.92677 1.23744 6.92677 0.762567 7.21966 0.469672Z" fill="white"/>
</svg>
