<svg width="15" height="18" viewBox="0 0 15 18" fill="none" xmlns="http://www.w3.org/2000/svg">
<path fill-rule="evenodd" clip-rule="evenodd" d="M4.61675 7.52737C4.61675 5.93727 5.91297 4.65832 7.50051 4.65832C9.08741 4.65832 10.3834 5.93749 10.3834 7.52737C10.3834 9.11663 9.0872 10.3956 7.50051 10.3956C5.91318 10.3956 4.61675 9.11684 4.61675 7.52737ZM7.50051 6.25832C6.78593 6.25832 6.21675 6.83159 6.21675 7.52737C6.21675 8.2221 6.78571 8.79559 7.50051 8.79559C8.21424 8.79559 8.78342 8.22231 8.78342 7.52737C8.78342 6.83138 8.21403 6.25832 7.50051 6.25832Z" fill="#3D3D3F"/>
<path fill-rule="evenodd" clip-rule="evenodd" d="M7.49964 2.121C4.49057 2.121 2.05004 4.56399 2.05004 7.57927C2.05004 9.49198 3.20575 11.4644 4.59659 13.0193C5.27984 13.7832 5.98897 14.4111 6.57538 14.8418C6.86945 15.0578 7.1207 15.2154 7.3127 15.315C7.40254 15.3616 7.46359 15.3871 7.49964 15.4008C7.5357 15.3871 7.59676 15.3616 7.68663 15.315C7.87866 15.2154 8.12994 15.0578 8.42406 14.8418C9.01055 14.4111 9.71978 13.7831 10.4031 13.0193C11.7942 11.4643 12.95 9.49194 12.95 7.57927C12.95 4.56413 10.5088 2.121 7.49964 2.121ZM0.450043 7.57927C0.450043 3.68257 3.60469 0.520996 7.49964 0.520996C11.3945 0.520996 14.55 3.68243 14.55 7.57927C14.55 10.0811 13.0801 12.4267 11.5956 14.0861C10.8412 14.9294 10.0502 15.6327 9.37114 16.1314C9.03247 16.3801 8.70961 16.5868 8.42328 16.7353C8.17547 16.8638 7.83386 17.0152 7.49964 17.0152C7.1654 17.0152 6.8238 16.8638 6.576 16.7353C6.28969 16.5868 5.96686 16.3801 5.62822 16.1314C4.9492 15.6326 4.15835 14.9293 3.40404 14.086C1.91977 12.4266 0.450043 10.0811 0.450043 7.57927Z" fill="#3D3D3F"/>
</svg>
