<svg width="31" height="29" viewBox="0 0 31 29" fill="none" xmlns="http://www.w3.org/2000/svg">
<path fill-rule="evenodd" clip-rule="evenodd" d="M15.6663 22.1617C20.9021 20.7477 24.0002 15.3569 22.5861 10.1212C21.1721 4.88542 15.7813 1.78732 10.5456 3.20138C5.30981 4.61544 2.21171 10.0062 3.62576 15.2419C5.03982 20.4777 10.4306 23.5758 15.6663 22.1617ZM16.3182 24.5753C22.8869 22.8012 26.7737 16.0381 24.9997 9.46934C23.2256 2.90063 16.4624 -0.986203 9.89373 0.787854C3.32502 2.56191 -0.561818 9.32506 1.21224 15.8938C2.9863 22.4625 9.74945 26.3493 16.3182 24.5753Z" fill="white"/>
<path fill-rule="evenodd" clip-rule="evenodd" d="M9.60711 7.67159C9.42711 7.00511 9.82148 6.31891 10.488 6.13891C14.6577 5.01274 18.951 7.48009 20.0771 11.6499C20.2571 12.3164 19.8628 13.0026 19.1963 13.1826C18.5298 13.3626 17.8436 12.9682 17.6636 12.3017C16.8974 9.46488 13.9766 7.78627 11.1398 8.55243C10.4733 8.73243 9.78711 8.33806 9.60711 7.67159Z" fill="white"/>
<path fill-rule="evenodd" clip-rule="evenodd" d="M24.5882 22.9164C25.0795 22.4314 25.8709 22.4364 26.356 22.9277L30.1886 26.8093C30.6736 27.3005 30.6686 28.0919 30.1773 28.577C29.6861 29.062 28.8947 29.057 28.4096 28.5658L24.577 24.6842C24.092 24.1929 24.097 23.4015 24.5882 22.9164Z" fill="white"/>
</svg>
