<svg width="31" height="31" viewBox="0 0 31 31" fill="none" xmlns="http://www.w3.org/2000/svg">
<path fill-rule="evenodd" clip-rule="evenodd" d="M30.9998 15.4667C30.9998 24.0087 24.0751 30.9334 15.5331 30.9334C6.99108 30.9334 0.0664062 24.0087 0.0664062 15.4667C0.0664062 6.92467 6.99108 0 15.5331 0C24.0751 0 30.9998 6.92467 30.9998 15.4667ZM11.9525 8.55361C11.9525 9.42444 11.2894 10.1292 10.2525 10.1292C9.25599 10.1292 8.59293 9.42444 8.61345 8.55361C8.59293 7.64046 9.25597 6.95624 10.2724 6.95624C11.2894 6.95624 11.9326 7.64046 11.9525 8.55361ZM8.69681 21.5166V11.3739H11.8492V21.5166H8.69681ZM14.2926 11.3752C14.3343 12.2672 14.376 13.3458 14.376 14.611H14.3772V21.5186H17.5297V15.6691C17.5297 15.3779 17.5707 15.0881 17.6541 14.8803C17.8612 14.3 18.3794 13.6985 19.2508 13.6985C20.3916 13.6985 20.8476 14.5898 20.8476 15.8974V21.5186H24V15.5024C24 12.5167 22.4443 11.1476 20.3705 11.1476C18.6904 11.1476 17.6534 12.1216 17.2386 12.7648H17.1763L17.0308 11.3752H14.2926Z" fill="#0077B5"/>
</svg>
