<svg width="32" height="31" viewBox="0 0 32 31" fill="none" xmlns="http://www.w3.org/2000/svg">
<path fill-rule="evenodd" clip-rule="evenodd" d="M16.0009 30.9334C24.5429 30.9334 31.4676 24.0087 31.4676 15.4667C31.4676 6.92467 24.5429 0 16.0009 0C7.45885 0 0.53418 6.92467 0.53418 15.4667C0.53418 24.0087 7.45885 30.9334 16.0009 30.9334ZM22.3248 10.6766C23.0116 10.5944 23.6664 10.4123 24.2748 10.142C23.8197 10.8228 23.2438 11.4207 22.5797 11.9007C22.5868 12.0457 22.5896 12.1925 22.5896 12.3398C22.5896 16.8262 19.1744 22 12.9293 22C11.0119 22 9.22731 21.4373 7.72466 20.4742C7.98999 20.5062 8.26029 20.5222 8.53501 20.5222C10.1259 20.5222 11.59 19.9788 12.7517 19.0686C11.2662 19.041 10.0117 18.0591 9.57981 16.7104C9.78722 16.7501 10.0002 16.7716 10.2192 16.7716C10.5286 16.7716 10.8287 16.7297 11.1134 16.6524C9.56105 16.3397 8.38993 14.9677 8.38993 13.3222V13.2797C8.84834 13.534 9.37129 13.6869 9.92844 13.7045C9.01659 13.0955 8.41806 12.0562 8.41806 10.8785C8.41806 10.2562 8.58521 9.67315 8.87757 9.17171C10.5523 11.226 13.054 12.5781 15.8762 12.7193C15.8183 12.4705 15.7879 12.2112 15.7879 11.9453C15.7879 10.0703 17.3082 8.55002 19.1832 8.55002C20.1591 8.55002 21.0422 8.96264 21.6617 9.6224C22.4346 9.46959 23.1622 9.18771 23.8175 8.79825C23.5643 9.59095 23.0259 10.2562 22.3248 10.6766Z" fill="#1DA1F2"/>
</svg>
